{"title":"RED CLIFF-3 KINGDOMS-ONE FATE 2009 IN H.264 ENG SUBBED BY WINKER","uid":5136322,"size":1050129351,"categoryP":"video","categoryS":"movies","magnet":"?xt=urn:btih:ddcdf23f9eafc0c6c6d656b680003b82b694827a&amp;dn=RED+CLIFF-3+KINGDOMS-ONE+FATE+2009+IN+H.264+ENG+SUBBED+BY+WINKER&amp;tr=udp%3A%2F%2Ftracker.openbittorrent.com%3A80&amp;tr=udp%3A%2F%2Fopen.demonii.com%3A1337&amp;tr=udp%3A%2F%2Ftracker.coppersurfer.tk%3A6969&amp;tr=udp%3A%2F%2Fexodus.desync.com%3A6969","seeders":0,"leechers":0,"uploader":"alanwatson","files":-1,"time":1256505249,"description":" &lt;a href=&quot;http://www.imdb.com/title/tt1326972/&quot; rel=&quot;nofollow&quot; target=&quot;_NEW&quot;&gt;http://www.imdb.com/title/tt1326972/&lt;/a&gt;\n\n\nRed Cliff is a Chinese historical epic set in 208 AD and tells the story of the most famous Chinese battle of all time, The Battle of Red Cliff. A true David and Goliath story, Red Cliff is set at a time when China was divided into three warring states. To unite them together Prime Minister Cao Cao sent 800,000 soldiers to wipe out the South and West Kingdoms, whose combines army was a fraction of the size, but their resistance and courage against this larger army was to go down in history.\n\nFormat : MPEG-4\nFormat profile : Base Media / Version 2\nCodec ID : mp42\nFile size : 999 MiB\nDuration : 2h 21mn\nOverall bit rate : 986 Kbps\nEncoded date : UTC 2009-10-25 07:15:25\nTagged date : UTC 2009-10-25 13:24:33\nWriting application : HandBrake 0.9.3 2008112300\n\nVideo\nID : 1\nFormat : AVC\nFormat/Info : Advanced Video Codec\nFormat profile : &lt;a class=&quot;__cf_email__&quot; href=&quot;/cdn-cgi/l/email-protection&quot; data-cfemail=&quot;7f321e16113f334b514f&quot;&gt;[email&amp;#160;protected]&lt;/a&gt;&lt;script cf-hash='f9e31' type=&quot;text/javascript&quot;&gt;\n/* &lt;![CDATA[ */!function(){try{var t=&quot;currentScript&quot;in document?document.currentScript:function(){for(var t=document.getElementsByTagName(&quot;script&quot;),e=t.length;e--;)if(t[e].getAttribute(&quot;cf-hash&quot;))return t[e]}();if(t&amp;&amp;t.previousSibling){var e,r,n,i,c=t.previousSibling,a=c.getAttribute(&quot;data-cfemail&quot;);if(a){for(e=&quot;&quot;,r=parseInt(a.substr(0,2),16),n=2;a.length-n;n+=2)i=parseInt(a.substr(n,2),16)^r,e+=String.fromCharCode(i);e=document.createTextNode(e),c.parentNode.replaceChild(e,c)}}}catch(u){}}();/* ]]&gt; */&lt;/script&gt;\nFormat settings, CABAC : Yes\nFormat settings, ReFrames : 3 frames\nCodec ID : avc1\nCodec ID/Info : Advanced Video Coding\nDuration : 2h 21mn\nBit rate mode : Variable\nBit rate : 822 Kbps\nWidth : 720 pixels\nHeight : 434 pixels\nDisplay aspect ratio : 2.35:1\nFrame rate mode : Variable\nFrame rate : 25.000 fps\nMinimum frame rate : 12.500 fps\nMaximum frame rate : 25.000 fps\nResolution : 24 bits\nColorimetry : 4:2:0\nScan type : Progressive\nBits/(Pixel*Frame) : 0.105\nStream size : 833 MiB (83%)\nWriting library : x264 core 65\n\n\nAudio\nID : 2\nFormat : AAC\nFormat/Info : Advanced Audio Codec\nFormat version : Version 4\nFormat profile : LC\nFormat settings, SBR : No\nCodec ID : 40\nDuration : 2h 21mn\nBit rate mode : Variable\nBit rate : 160 Kbps\nMaximum bit rate : 223 Kbps\nChannel(s) : 2 channels\nChannel positions : L R\nSampling rate : 48.0 KHz\nResolution : 16 bits\nStream size : 162 MiB (16%)\nLanguage : Chinese\nEncoded date : UTC 2009-10-25 07:15:25\nTagged date : UTC 2009-10-25 13:24:32 ","torrent":{"xt":"urn:btih:ddcdf23f9eafc0c6c6d656b680003b82b694827a","amp;dn":"RED+CLIFF-3+KINGDOMS-ONE+FATE+2009+IN+H.264+ENG+SUBBED+BY+WINKER","amp;tr":["udp%3A%2F%2Ftracker.openbittorrent.com%3A80","udp%3A%2F%2Fopen.demonii.com%3A1337","udp%3A%2F%2Ftracker.coppersurfer.tk%3A6969","udp%3A%2F%2Fexodus.desync.com%3A6969"],"infoHash":"ddcdf23f9eafc0c6c6d656b680003b82b694827a","infoHashBuffer":{"type":"Buffer","data":[221,205,242,63,158,175,192,198,198,214,86,182,128,0,59,130,182,148,130,122]},"announce":[],"urlList":[]}}